<svg xmlns="http://www.w3.org/2000/svg" viewBox="0 0 841.9 595.3">
  <g fill="#61DAFB">
    <path d="M666.3 296.5c0-128.1-101.9-233.2-233.2-233.2S200 168.4 200 296.5 301.9 529.7 433.2 529.7 666.3 424.6 666.3 296.5zM433.2 470.5c-97.3 0-176-78.7-176-176s78.7-176 176-176 176 78.7 176 176-78.7 176-176 176z"></path>
    <path d="M455.7 296.5c0-12.4-10-22.4-22.4-22.4s-22.4 10-22.4 22.4 10 22.4 22.4 22.4 22.4-10 22.4-22.4z"></path>
    <path d="M741.8 193.5c-1.5-2.6-4-4.7-7.4-5.4l-83.1-18.1c-6.5-1.4-13.1 3.2-14.5 9.8-1.4 6.5 3.2 13.1 9.8 14.5l57.8 12.5c-25.6 54.6-69.4 102.1-120.2 134.6-6 3.8-7.9 11.9-4.1 17.9s11.9 7.9 17.9 4.1c56.1-35.1 104.4-86.9 131.2-144.6C742.5 199.6 743.3 196 741.8 193.5zM353.6 474.8c-2.6-1.5-5.8-1.1-8.3.9-2.5 2-3.4 5.2-2.2 8.2 15.7 36.7 46.9 65.3 87.4 79.2 6.5 2.1 13.5-1.3 15.6-7.8 2.1-6.5-1.3-13.5-7.8-15.6-34.3-11.2-61.8-36.7-74.8-70.6-1.1-2.7-4.1-4.3-6.9-4.3-1.1 0-2.3.3-3.4 1.1z"></path>
  </g>
</svg>
